<svg xmlns="http://www.w3.org/2000/svg" width="26" height="26" viewBox="0 0 26 26">
  <g id="Сгруппировать_22" data-name="Сгруппировать 22" transform="translate(-1150 -586)">
    <rect id="Прямоугольник_49" data-name="Прямоугольник 49" width="26" height="26" transform="translate(1150 586)" fill="none"/>
    <g id="Selected_Items" transform="translate(1152.015 585.822)">
      <g id="Сгруппировать_23" data-name="Сгруппировать 23" transform="translate(0 3.567)">
        <g id="Selected_Items_60_">
          <path id="Контур_3" data-name="Контур 3" d="M21.971,11.349v.665a.159.159,0,0,1-.048.118.718.718,0,0,1-.237.26.8.8,0,0,1-.332.167.908.908,0,0,1-.4.048,1.222,1.222,0,0,1-.475-.213,15.234,15.234,0,0,0-2.823-1.518,9.967,9.967,0,0,0-2.4-.594,13.68,13.68,0,0,0-1.851.071q-.782.119-1.447.214a4.7,4.7,0,0,1-.926.092q-.45.023-.9.023H9.988c-.174-.079-.347-.151-.522-.214a1.724,1.724,0,0,0-.428-.142c-.157-.049-.275-.087-.355-.118q-.119.189-.214.356a.713.713,0,0,1-.284.237c.062.111.2.325.4.641.207.285.4.549.594.806-.016.033-.016.056,0,.073,0,.047.032.07.092.07l.711.594c.174,0,.174.086,0,.261-.048.048-.078.07-.092.07a.527.527,0,0,1-.142-.07L9.4,12.983a7.264,7.264,0,0,1,.309,1.3q.071.666.189,1.495a9.09,9.09,0,0,0,1.282,3.156,8.27,8.27,0,0,0,2.515,2.444,1.123,1.123,0,0,1,.309.331,2.16,2.16,0,0,1,.024.286v.142a.732.732,0,0,1-.071.331.484.484,0,0,1-.189.237.59.59,0,0,1-.071.261.508.508,0,0,1-.4.118q-.19.214-.712-.143l-.118-.07a10.757,10.757,0,0,1-3.06-2.8,10.686,10.686,0,0,1-1.589-3.535c-.062-.507-.111-.957-.143-1.353a7.149,7.149,0,0,1-.092-1.115,3.248,3.248,0,0,1-.142-.759,2.838,2.838,0,0,0-.07-.568L7.1,12.462l-.475-.783a2.982,2.982,0,0,1-.379-.451c-.11-.142-.2-.26-.261-.355-.092-.092-.142-.158-.142-.189-.062-.032-.2-.086-.4-.166a6.2,6.2,0,0,0-.594-.262q-.378-.142-.831-.308L.118,6.77,0,6.605c0-.063.04-.092.118-.092V6.395c0-.08.08-.118.237-.118L4.508,7.862a.2.2,0,0,1,.092.166.774.774,0,0,1,.025.189c0,.238.039.356.118.356A.384.384,0,0,0,5.1,8.551a.563.563,0,0,0,.142-.092V8.34l.45-.594c.063-.11.071-.2.024-.26A.562.562,0,0,0,5.5,7.438l-.141.048H5.127c-.092-.016-.142-.056-.142-.118L2.33,3.855V3.567h.356L6.221,6.039h.142q.381.521.665.926c.174.237.331.458.475.664.174.19.275.3.309.331.079.031.238.08.475.143.22.079.458.15.711.213q.4.119.759.189a3.479,3.479,0,0,0,.379.071c.158,0,.634-.04,1.424-.118a30.357,30.357,0,0,1,3.084-.118q1.139,0,1.874.07a5.892,5.892,0,0,1,1.448.38,12.5,12.5,0,0,1,1.591.854q.876.568,2.253,1.541A.413.413,0,0,1,21.971,11.349Zm-11.982.168.973.379c.079,0,.118.079.118.237q-.092,0-.118.049c-.016.03-.056.016-.119-.049L9.893,11.9c-.079,0-.126-.024-.142-.071v-.142c0-.092.031-.143.092-.143a.47.47,0,0,1,.146-.023Zm.142-.333c0-.062.016-.1.048-.117a.074.074,0,0,1,.07-.049l.973.166a.309.309,0,0,1,.19.072.2.2,0,0,1,.07.142.111.111,0,0,1-.07.119h-.19l-.969-.119c-.082,0-.123-.07-.123-.213Zm.5,1.568a.741.741,0,0,0-.213.023c-.032.031-.048.023-.048-.023l-.855-.5c-.078,0-.118-.078-.118-.236.063,0,.1-.016.118-.048s.065-.016.142.048l.807.45c.092,0,.151.032.166.092Z" transform="translate(0 -3.567)" fill="#B5D4EE" fill-rule="evenodd"/>
        </g>
      </g>
    </g>
  </g>
</svg>
