<svg xmlns="http://www.w3.org/2000/svg" width="14.002" height="17.076" viewBox="0 0 14.002 17.076">
  <g id="Layer_1" transform="translate(-9.049 -6.876)">
    <path id="Контур_3" data-name="Контур 3" d="M22.278,23.931h0a.708.708,0,0,1-.772-.61V7.485a.708.708,0,0,1,.772-.609h0a.707.707,0,0,1,.773.609V23.321A.707.707,0,0,1,22.278,23.931Z" transform="translate(0 0)" fill="#fff"/>
    <path id="Контур_4" data-name="Контур 4" d="M18.127,24.748h0a.708.708,0,0,1-.774-.609V11.3a.71.71,0,0,1,.774-.611h0a.707.707,0,0,1,.771.611V24.139A.706.706,0,0,1,18.127,24.748Z" transform="translate(0 -0.805)" fill="#fff"/>
    <path id="Контур_5" data-name="Контур 5" d="M13.976,25.537h0a.708.708,0,0,1-.774-.609v-9.92a.71.71,0,0,1,.774-.611h0a.708.708,0,0,1,.772.611v9.919A.708.708,0,0,1,13.976,25.537Z" transform="translate(0 -1.585)" fill="#fff"/>
    <path id="Контур_6" data-name="Контур 6" d="M9.823,26.335h0a.707.707,0,0,1-.774-.609V18.835a.709.709,0,0,1,.774-.611h0a.708.708,0,0,1,.771.611v6.891A.706.706,0,0,1,9.823,26.335Z" transform="translate(0 -2.391)" fill="#fff"/>
  </g>
</svg>
