<svg xmlns="http://www.w3.org/2000/svg" width="26" height="26" viewBox="0 0 26 26">
  <g id="Сгруппировать_21" data-name="Сгруппировать 21" transform="translate(-1150 -586)">
    <rect id="Прямоугольник_49" data-name="Прямоугольник 49" width="26" height="26" transform="translate(1150 586)" fill="none"/>
    <g id="Сгруппировать_27" data-name="Сгруппировать 27" transform="translate(1147.85 585.795)">
      <g id="Сгруппировать_26" data-name="Сгруппировать 26" transform="translate(6.351 1.777)">
        <path id="Контур_15" data-name="Контур 15" d="M23.948,13.66c.014-1.255-.43-1.284-.456-2.057-.014-.387.032-1.468,0-2.513A12.668,12.668,0,0,0,23.26,6.8,4.876,4.876,0,0,0,21.437,4.29a12.711,12.711,0,0,0-6.4-2.513A10.3,10.3,0,0,0,9.779,3.606,7.205,7.205,0,0,0,7.267,5.891a3.657,3.657,0,0,0-.684,2.971c.143,1.512.174,1.115.224,2.513.046,1.157-.482,1.515-.451,2.285.035,1.153.465,1.389.451,1.829-.009.286-.509.648-.451,1.6.052.969.254,1.229,2.055,2.283,1.164.686,2.543.943,2.515,1.372-.05.628-.2,1.657-.228,2.288s.255.683.914.914a11.668,11.668,0,0,0,3.883.688,7.519,7.519,0,0,0,3.2-.688c.8-.313.914-.6.914-1.141s-.456-1.657-.456-2.057,1.371-.831,2.97-1.6,1.579-1.541,1.6-2.055c.04-.972-.456-1.2-.456-1.6C23.26,14.708,23.94,14.576,23.948,13.66ZM10.465,15.943c-.8.031-2.514.031-2.514-2.283,0-3.205,1.719-3.569,2.976-3.657s1.425-.228,2.05.23c1.135.82,1.059,2.277.689,3.427a2.728,2.728,0,0,1-1.144,1.6A3.533,3.533,0,0,1,10.465,15.943ZM15.723,19.6l-.317-1.169-.483.007L14.579,19.6c-1.313-.357-1.845-.887-1.829-1.6a2.84,2.84,0,0,1,1.14-2.059c.727-.6.848-.691,1.375-.684.5.007.541.1.914.456A3.257,3.257,0,0,1,17.547,18c.066,1-1.1,1.555-1.824,1.6Zm4.115-3.657a3.539,3.539,0,0,1-2.058-.681,2.563,2.563,0,0,1-1.144-1.6c-.294-1.074-.441-2.607.683-3.427.635-.458.8-.317,2.061-.23s2.97.451,2.97,3.657C22.352,15.974,20.633,15.974,19.838,15.943Z" transform="translate(-6.351 -1.777)" fill="#EAD18A" fill-rule="evenodd"/>
      </g>
    </g>
  </g>
</svg>
